<svg viewBox="0 0 28 28" fill="none" xmlns="http://www.w3.org/2000/svg">
<path d="M12.6628 9.58325H11.9712C11.0878 9.58325 10.252 9.93281 9.61801 10.5668C8.98399 11.2009 8.63469 12.0364 8.63469 12.9203V16.9003C8.63469 17.3421 8.27652 17.7003 7.83469 17.7003H5.2C4.75817 17.7003 4.4 17.3421 4.4 16.9003V12.9203C4.4 8.74549 7.79638 5.34883 11.9712 5.34883H12.6628C13.1046 5.34883 13.4628 4.99066 13.4628 4.54883V3.67019C13.4628 2.95206 14.3356 2.59762 14.8363 3.11246L18.5987 6.98149C18.9007 7.29201 18.9007 7.78646 18.5987 8.09697L14.8363 11.9656C14.3356 12.4804 13.4628 12.126 13.4628 11.4079V10.3832C13.4628 9.94142 13.1046 9.58325 12.6628 9.58325Z" fill="white"/>
<path fill-rule="evenodd" clip-rule="evenodd" d="M13.0628 3.67019C13.0628 2.593 14.3721 2.06134 15.1231 2.83359L18.8855 6.70262C19.3385 7.16841 19.3384 7.91009 18.8855 8.37585L15.123 12.2445C14.372 13.0167 13.0628 12.485 13.0628 11.4079V10.3832C13.0628 10.1623 12.8837 9.98325 12.6628 9.98325H11.9712C11.1958 9.98325 10.4612 10.2893 9.90085 10.8497C9.34057 11.41 9.03469 12.1443 9.03469 12.9203V16.9003C9.03469 17.563 8.49744 18.1003 7.83469 18.1003H5.2C4.53726 18.1003 4 17.563 4 16.9003V12.9203C4 8.5246 7.57545 4.94883 11.9712 4.94883H12.6628C12.8837 4.94883 13.0628 4.76975 13.0628 4.54883V3.67019ZM14.5495 3.39132C14.2992 3.1339 13.8628 3.31112 13.8628 3.67019V4.54883C13.8628 5.21157 13.3255 5.74883 12.6628 5.74883H11.9712C8.01732 5.74883 4.8 8.96638 4.8 12.9203V16.9003C4.8 17.1212 4.97909 17.3003 5.2 17.3003H7.83469C8.05561 17.3003 8.23469 17.1212 8.23469 16.9003V12.9203C8.23469 11.9285 8.62741 10.9918 9.33517 10.284C10.0429 9.57629 10.9799 9.18325 11.9712 9.18325H12.6628C13.3255 9.18325 13.8628 9.7205 13.8628 10.3832V11.4079C13.8628 11.7669 14.2992 11.9441 14.5495 11.6868L18.312 7.81809C18.4629 7.66284 18.4629 7.41561 18.312 7.26035L14.5495 3.39132Z" fill="#3A55A3"/>
<path d="M15.3389 18.3521L16.0304 18.3563C16.9138 18.3615 17.7517 18.017 18.3895 17.3868C19.0273 16.7565 19.3815 15.9231 19.3868 15.0392L19.4106 11.0593C19.4132 10.6175 19.7735 10.2615 20.2154 10.2641L22.85 10.2798C23.2918 10.2825 23.6479 10.6428 23.6452 11.0846L23.6214 15.0645C23.5965 19.2392 20.1799 22.6155 16.0051 22.5906L15.3136 22.5865C14.8718 22.5838 14.5115 22.9399 14.5088 23.3817L14.5036 24.2603C14.4993 24.9784 13.6243 25.3276 13.1267 24.8098L9.38748 20.9184C9.08737 20.6061 9.09034 20.1116 9.39417 19.8029L13.1797 15.9568C13.6834 15.445 14.5541 15.8047 14.5498 16.5228L14.5437 17.5474C14.541 17.9892 14.8971 18.3495 15.3389 18.3521Z" fill="white"/>
<path fill-rule="evenodd" clip-rule="evenodd" d="M14.9036 24.2627C14.8971 25.3399 13.5847 25.8637 12.8383 25.087L9.09906 21.1955C8.64889 20.7271 8.65334 19.9854 9.10909 19.5223L12.8946 15.6762C13.6502 14.9085 14.9562 15.448 14.9498 16.5252L14.9437 17.5498C14.9424 17.7707 15.1204 17.9508 15.3413 17.9521L16.0328 17.9563C16.8082 17.9609 17.5446 17.6592 18.1083 17.1022C18.6719 16.5453 18.9822 15.8128 18.9868 15.0368L19.0106 11.0569C19.0146 10.3942 19.555 9.86015 20.2178 9.86411L22.8524 9.87985C23.5151 9.88381 24.0492 10.4243 24.0452 11.087L24.0214 15.0668C23.9952 19.4625 20.3984 23.0169 16.0027 22.9906L15.3112 22.9865C15.0903 22.9851 14.9101 23.1632 14.9088 23.3841L14.9036 24.2627ZM13.4152 24.5327C13.6639 24.7916 14.1014 24.617 14.1036 24.2579L14.1088 23.3793C14.1128 22.7166 14.6532 22.1825 15.316 22.1865L16.0075 22.1906C19.9613 22.2142 23.1978 19.016 23.2214 15.0621L23.2452 11.0822C23.2465 10.8613 23.0685 10.6812 22.8476 10.6798L20.213 10.6641C19.9921 10.6628 19.8119 10.8408 19.8106 11.0617L19.7868 15.0416C19.7809 16.0334 19.3826 16.9678 18.6706 17.6713C17.9587 18.3747 17.0194 18.7622 16.028 18.7563L15.3365 18.7521C14.6738 18.7482 14.1397 18.2077 14.1437 17.545L14.1498 16.5204C14.152 16.1613 13.7166 15.9815 13.4647 16.2374L9.67926 20.0835C9.52734 20.2379 9.52585 20.4851 9.67591 20.6412L13.4152 24.5327Z" fill="#3A55A3"/>
</svg>
