<svg viewBox="0 0 28 28" fill="none" xmlns="http://www.w3.org/2000/svg">
<path d="M15.7528 17.6948C15.7528 21.2577 12.8645 24.1461 9.30152 24.1461C5.73855 24.1461 2.8502 21.2577 2.8502 17.6948C2.8502 14.1318 5.73855 11.2435 9.30152 11.2435C12.8645 11.2435 15.7528 14.1318 15.7528 17.6948Z" fill="white"/>
<path fill-rule="evenodd" clip-rule="evenodd" d="M9.30152 11.6435C5.95947 11.6435 3.2502 14.3527 3.2502 17.6948C3.2502 21.0368 5.95947 23.7461 9.30152 23.7461C12.6436 23.7461 15.3528 21.0368 15.3528 17.6948C15.3528 14.3527 12.6436 11.6435 9.30152 11.6435ZM2.4502 17.6948C2.4502 13.9109 5.51764 10.8435 9.30152 10.8435C13.0854 10.8435 16.1528 13.9109 16.1528 17.6948C16.1528 21.4787 13.0854 24.5461 9.30152 24.5461C5.51764 24.5461 2.4502 21.4787 2.4502 17.6948Z" fill="#3A55A3"/>
<path d="M7.54555 13.6147L13.2823 3.68102C13.5879 3.15197 14.3497 3.1468 14.6624 3.67166L20.5804 13.6054C20.898 14.1386 20.5138 14.8148 19.8931 14.8148H8.23832C7.62244 14.8148 7.23755 14.1481 7.54555 13.6147Z" fill="white"/>
<path fill-rule="evenodd" clip-rule="evenodd" d="M14.3188 3.87638C14.1624 3.61395 13.7815 3.61654 13.6287 3.88106L7.89194 13.8148C7.73794 14.0814 7.93038 14.4148 8.23832 14.4148H19.8931C20.2034 14.4148 20.3956 14.0767 20.2367 13.8101L14.3188 3.87638ZM12.936 3.48098C13.3943 2.6874 14.537 2.67965 15.006 3.46694L20.924 13.4007C21.4005 14.2005 20.8242 15.2148 19.8931 15.2148H8.23832C7.3145 15.2148 6.73716 14.2147 7.19916 13.4147L12.936 3.48098Z" fill="#3A55A3"/>
<path d="M13.6256 13.4598C13.6256 13.0179 13.9838 12.6598 14.4256 12.6598H24.2168C24.6587 12.6598 25.0168 13.0179 25.0168 13.4598V23.251C25.0168 23.6928 24.6587 24.051 24.2168 24.051H14.4256C13.9838 24.051 13.6256 23.6928 13.6256 23.251V13.4598Z" fill="white"/>
<path fill-rule="evenodd" clip-rule="evenodd" d="M13.2256 13.4598C13.2256 12.797 13.7629 12.2598 14.4256 12.2598H24.2168C24.8796 12.2598 25.4168 12.797 25.4168 13.4598V23.251C25.4168 23.9137 24.8796 24.451 24.2168 24.451H14.4256C13.7629 24.451 13.2256 23.9137 13.2256 23.251V13.4598ZM14.4256 13.0598C14.2047 13.0598 14.0256 13.2389 14.0256 13.4598V23.251C14.0256 23.4719 14.2047 23.651 14.4256 23.651H24.2168C24.4377 23.651 24.6168 23.4719 24.6168 23.251V13.4598C24.6168 13.2389 24.4377 13.0598 24.2168 13.0598H14.4256Z" fill="#3A55A3"/>
</svg>
