<svg viewBox="0 0 28 28" fill="none" xmlns="http://www.w3.org/2000/svg">
<path d="M3.3502 4.14995C3.3502 3.70812 3.70837 3.34995 4.1502 3.34995H13.9752H23.8002C24.242 3.34995 24.6002 3.70812 24.6002 4.14995V13.975V23.7999C24.6002 24.2418 24.242 24.6 23.8002 24.6H4.15019C3.70837 24.6 3.3502 24.2418 3.3502 23.8V4.14995Z" fill="white"/>
<path fill-rule="evenodd" clip-rule="evenodd" d="M4.1502 3.74995C3.92928 3.74995 3.7502 3.92904 3.7502 4.14995V13.575H13.5752V3.74995H4.1502ZM14.3752 3.74995V13.575H24.2002V4.14995C24.2002 3.92904 24.0211 3.74995 23.8002 3.74995H14.3752ZM24.2002 14.375H14.3752V24.2H23.8002C24.0211 24.2 24.2002 24.0209 24.2002 23.7999V14.375ZM23.8002 25C24.4629 25 25.0002 24.4627 25.0002 23.7999V4.14995C25.0002 3.48721 24.4629 2.94995 23.8002 2.94995H4.1502C3.48745 2.94995 2.9502 3.48721 2.9502 4.14995V23.8C2.9502 24.4627 3.48745 25 4.15019 25H23.8002ZM13.5752 24.2V14.375H3.7502V23.8C3.7502 24.0209 3.92928 24.2 4.15019 24.2H13.5752Z" fill="#3A55A3"/>
<path d="M11.5429 9.07883C11.5429 9.18929 11.4533 9.27883 11.3429 9.27883H9.41402C9.30357 9.27883 9.21402 9.36838 9.21402 9.47883V11.4019C9.21402 11.5124 9.12448 11.6019 9.01402 11.6019H8.64735C8.5369 11.6019 8.44736 11.5124 8.44736 11.4019V9.47883C8.44736 9.36838 8.35781 9.27883 8.24735 9.27883H6.32429C6.21383 9.27883 6.12429 9.18929 6.12429 9.07883V8.7064C6.12429 8.59594 6.21383 8.5064 6.32429 8.5064H8.24735C8.35781 8.5064 8.44736 8.41686 8.44736 8.3064V6.38333C8.44736 6.27288 8.5369 6.18333 8.64736 6.18333H9.01402C9.12448 6.18333 9.21402 6.27288 9.21402 6.38333V8.3064C9.21402 8.41686 9.30357 8.5064 9.41402 8.5064H11.3429C11.4533 8.5064 11.5429 8.59594 11.5429 8.7064V9.07883Z" fill="#3A55A3"/>
<path d="M10.881 17.2613C10.9591 17.3394 10.9591 17.466 10.881 17.5441L9.51712 18.908C9.43902 18.9861 9.43902 19.1127 9.51712 19.1908L10.8769 20.5507C10.955 20.6288 10.955 20.7554 10.8769 20.8335L10.6177 21.0928C10.5396 21.1709 10.4129 21.1709 10.3348 21.0928L8.975 19.733C8.8969 19.6549 8.77027 19.6549 8.69216 19.733L7.33235 21.0928C7.25424 21.1709 7.12761 21.1709 7.04951 21.0928L6.78615 20.8294C6.70805 20.7513 6.70805 20.6247 6.78615 20.5466L8.14597 19.1868C8.22407 19.1087 8.22407 18.982 8.14597 18.9039L6.78615 17.5441C6.70805 17.466 6.70805 17.3394 6.78615 17.2613L7.04543 17.002C7.12353 16.9239 7.25017 16.9239 7.32827 17.002L8.68808 18.3618C8.76619 18.4399 8.89282 18.4399 8.97093 18.3618L10.3348 16.9979C10.4129 16.9198 10.5396 16.9198 10.6177 16.9979L10.881 17.2613Z" fill="#3A55A3"/>
<path d="M22.0498 9.07881C22.0498 9.18927 21.9603 9.27881 21.8498 9.27881H16.8313C16.7208 9.27881 16.6313 9.18927 16.6313 9.07881V8.70638C16.6313 8.59592 16.7208 8.50638 16.8313 8.50638H21.8498C21.9603 8.50638 22.0498 8.59592 22.0498 8.70638V9.07881Z" fill="#3A55A3"/>
<path d="M22.0498 18.0891C22.0498 18.1995 21.9603 18.2891 21.8498 18.2891H16.8313C16.7208 18.2891 16.6313 18.1995 16.6313 18.0891V17.7166C16.6313 17.6062 16.7208 17.5166 16.8313 17.5166H21.8498C21.9603 17.5166 22.0498 17.6062 22.0498 17.7166V18.0891Z" fill="#3A55A3"/>
<path d="M22.0498 20.4501C22.0498 20.5606 21.9603 20.6501 21.8498 20.6501H16.8313C16.7208 20.6501 16.6313 20.5606 16.6313 20.4501V20.0777C16.6313 19.9673 16.7208 19.8777 16.8313 19.8777H21.8498C21.9603 19.8777 22.0498 19.9673 22.0498 20.0777V20.4501Z" fill="#3A55A3"/>
</svg>
